<svg  viewBox="0 0 79 20" fill="none" xmlns="http://www.w3.org/2000/svg">
<path d="M0.535156 19.2668V5.53643H3.31413L3.3673 6.59086C3.6775 6.21823 4.24046 5.85943 4.74018 5.66441C5.2521 5.45721 5.78839 5.35361 6.34906 5.35361C7.17788 5.35361 7.91528 5.573 8.56127 6.01179C9.20726 6.43838 9.71309 7.02952 10.0787 7.78521C10.4566 8.52871 10.6455 9.39409 10.6455 10.3814C10.6455 11.3564 10.4566 12.2218 10.0787 12.9775C9.71309 13.7332 9.20117 14.3304 8.54299 14.7692C7.897 15.1958 7.1535 15.4091 6.3125 15.4091C5.76402 15.4091 5.23991 15.3055 4.74018 15.0983C4.24046 14.8911 3.81995 14.6108 3.47868 14.2573V19.2668H0.535156ZM5.59947 12.9409C6.03826 12.9409 6.42219 12.8373 6.75128 12.6301C7.08037 12.4107 7.33633 12.1121 7.51916 11.7343C7.70199 11.3564 7.7934 10.9055 7.7934 10.3814C7.7934 9.86944 7.70199 9.42456 7.51916 9.04672C7.33633 8.65669 7.08037 8.35807 6.75128 8.15087C6.43438 7.93147 6.05045 7.82178 5.59947 7.82178C5.1485 7.82178 4.75847 7.92538 4.42938 8.13258C4.10029 8.33979 3.84433 8.6384 3.6615 9.02844C3.47868 9.41847 3.38726 9.86944 3.38726 10.3814C3.38726 10.9055 3.47868 11.3564 3.6615 11.7343C3.84433 12.1121 4.10029 12.4107 4.42938 12.6301C4.75847 12.8373 5.1485 12.9409 5.59947 12.9409Z" fill="currentColor"/>
<path d="M11.6909 15.2446V1.71535H14.6161V15.2446H11.6909Z" fill="currentColor"/>
<path d="M16.4757 15.2446V5.53643H19.4009V15.2446H16.4757ZM17.9383 3.61675C17.3898 3.61675 16.9571 3.48877 16.6402 3.23281C16.3355 2.96466 16.1832 2.58682 16.1832 2.09928C16.1832 1.6605 16.3416 1.30094 16.6585 1.0206C16.9754 0.740265 17.402 0.600098 17.9383 0.600098C18.4868 0.600098 18.9134 0.734171 19.2181 1.00232C19.5228 1.25828 19.6752 1.62393 19.6752 2.09928C19.6752 2.55026 19.5167 2.91591 19.1998 3.19625C18.8951 3.47658 18.4746 3.61675 17.9383 3.61675Z" fill="currentColor"/>
<path d="M24.1606 12.285V8.71841L27.5063 5.53643H31.364L24.1606 12.285ZM21.2353 15.2446V4.44694L24.1606 1.71535V15.2446H21.2353ZM27.8171 15.2446L24.9549 11.5409H28.3401L31.2726 15.2446H27.8171Z" fill="currentColor"/>
<path d="M34.9385 15.4091C34.1219 15.4091 33.3906 15.1958 32.7446 14.7692C32.1108 14.3304 31.605 13.7332 31.2271 12.9775C30.8493 12.2096 30.6604 11.3442 30.6604 10.3814C30.6604 9.39409 30.8493 8.52261 31.2271 7.76693C31.605 7.01124 32.123 6.4201 32.7812 5.9935C33.4394 5.55472 34.1889 5.33532 35.0299 5.33532C35.4931 5.33532 35.9136 5.40236 36.2915 5.53643C36.6815 5.67051 37.0228 5.85943 37.3153 6.1032C37.6078 6.33478 37.7672 6.5039 37.9186 6.7186V5.53643H40.8256V15.2446H37.8638V14.0875C37.5767 14.4074 37.5591 14.4279 37.2422 14.6595C36.9253 14.8911 36.5718 15.0739 36.1818 15.208C35.7917 15.3421 35.3773 15.4091 34.9385 15.4091ZM35.743 12.9409C36.194 12.9409 36.584 12.8373 36.9131 12.6301C37.2422 12.4229 37.4981 12.1304 37.6809 11.7526C37.8638 11.3625 37.9552 10.9055 37.9552 10.3814C37.9552 9.85725 37.8638 9.40628 37.6809 9.02844C37.4981 8.6384 37.2422 8.33979 36.9131 8.13258C36.584 7.91319 36.194 7.80349 35.743 7.80349C35.3042 7.80349 34.9202 7.91319 34.5912 8.13258C34.2743 8.33979 34.0244 8.6384 33.8416 9.02844C33.6587 9.40628 33.5673 9.85725 33.5673 10.3814C33.5673 10.9055 33.6587 11.3625 33.8416 11.7526C34.0244 12.1304 34.2743 12.4229 34.5912 12.6301C34.9202 12.8373 35.3042 12.9409 35.743 12.9409Z" fill="currentColor"/>
<path d="M42.4453 15.2369V1.77783H45.3554V15.2369H42.4453Z" fill="currentColor"/>
<path d="M50.4288 15.4006C49.6164 15.4006 48.8889 15.1884 48.2463 14.764C47.6157 14.3275 47.1125 13.7333 46.7367 12.9816C46.3608 12.2177 46.1728 11.3568 46.1728 10.3989C46.1728 9.41675 46.3608 8.54979 46.7367 7.79802C47.1125 7.04626 47.6279 6.45818 48.2826 6.0338C48.9374 5.59729 49.6831 5.37903 50.5197 5.37903C50.9805 5.37903 51.3988 5.44572 51.7747 5.5791C52.1627 5.71248 52.5022 5.90042 52.7932 6.14293C53.0842 6.37331 53.3328 6.64612 53.5389 6.96138C53.7451 7.26451 53.8966 7.59189 53.9936 7.94353L53.3934 7.87078V5.5791H56.2853V15.2369H53.3389V12.9088L53.9936 12.8906C53.8966 13.2301 53.739 13.5515 53.5207 13.8546C53.3025 14.1577 53.0357 14.4245 52.7205 14.6549C52.4052 14.8852 52.0536 15.0671 51.6656 15.2005C51.2776 15.3339 50.8653 15.4006 50.4288 15.4006ZM51.2291 12.9452C51.6777 12.9452 52.0657 12.8421 52.3931 12.636C52.7205 12.4299 52.9751 12.1389 53.157 11.763C53.3389 11.375 53.4298 10.9203 53.4298 10.3989C53.4298 9.87751 53.3389 9.42887 53.157 9.05299C52.9751 8.66498 52.7205 8.36791 52.3931 8.16178C52.0657 7.94353 51.6777 7.8344 51.2291 7.8344C50.7926 7.8344 50.4106 7.94353 50.0832 8.16178C49.768 8.36791 49.5194 8.66498 49.3375 9.05299C49.1557 9.42887 49.0647 9.87751 49.0647 10.3989C49.0647 10.9203 49.1557 11.375 49.3375 11.763C49.5194 12.1389 49.768 12.4299 50.0832 12.636C50.4106 12.8421 50.7926 12.9452 51.2291 12.9452Z" fill="currentColor"/>
<path d="M57.9437 15.2369V5.5791H60.7082L60.7992 7.54339L60.2172 7.76165C60.3505 7.32514 60.587 6.93107 60.9265 6.57944C61.2781 6.21568 61.6964 5.92467 62.1814 5.70642C62.6665 5.48816 63.1757 5.37903 63.7092 5.37903C64.4367 5.37903 65.0491 5.5306 65.5462 5.83373C66.0433 6.12474 66.4192 6.56731 66.6739 7.16145C66.9285 7.74346 67.0558 8.45885 67.0558 9.30762V15.2369H64.1276V9.54406C64.1276 9.15605 64.073 8.83473 63.9639 8.5801C63.8547 8.32547 63.685 8.13753 63.4546 8.01628C63.2363 7.8829 62.9635 7.82227 62.6361 7.8344C62.3815 7.8344 62.1451 7.87684 61.9268 7.96172C61.7086 8.03447 61.5206 8.14966 61.363 8.30728C61.2054 8.45279 61.0781 8.62254 60.981 8.81655C60.8962 9.01055 60.8537 9.22274 60.8537 9.45312V15.2369H59.4169C59.0774 15.2369 58.7864 15.2369 58.5439 15.2369C58.3014 15.2369 58.1013 15.2369 57.9437 15.2369Z" fill="currentColor"/>
<path d="M72.2351 15.4369C71.3984 15.4369 70.6527 15.2247 69.998 14.8004C69.3553 14.3639 68.8461 13.7697 68.4702 13.018C68.0943 12.2541 67.9064 11.3871 67.9064 10.4171C67.9064 9.44706 68.0943 8.58617 68.4702 7.8344C68.8461 7.07051 69.3614 6.47031 70.0162 6.0338C70.6709 5.59729 71.4227 5.37903 72.2715 5.37903C72.708 5.37903 73.1263 5.44572 73.5264 5.5791C73.9266 5.71248 74.2903 5.89436 74.6177 6.12474C74.9451 6.35512 75.2118 6.62187 75.418 6.925C75.6241 7.21601 75.7453 7.51914 75.7817 7.8344L75.0906 7.99809V1.77783H78.0188V15.2369H75.3088L75.1452 13.0361L75.7272 13.1271C75.6908 13.4302 75.5695 13.7212 75.3634 14.0001C75.1694 14.279 74.9148 14.5275 74.5995 14.7458C74.2843 14.9519 73.9205 15.1156 73.5082 15.2369C73.1081 15.3702 72.6837 15.4369 72.2351 15.4369ZM72.9808 13.018C73.4294 13.018 73.8174 12.9088 74.1448 12.6906C74.4722 12.4723 74.7208 12.1692 74.8905 11.7812C75.0724 11.3932 75.1633 10.9385 75.1633 10.4171C75.1633 9.88357 75.0724 9.42281 74.8905 9.0348C74.7208 8.64679 74.4722 8.34366 74.1448 8.12541C73.8174 7.90715 73.4294 7.79802 72.9808 7.79802C72.5322 7.79802 72.1442 7.90715 71.8168 8.12541C71.5015 8.34366 71.2529 8.64679 71.0711 9.0348C70.8892 9.42281 70.7982 9.88357 70.7982 10.4171C70.7982 10.9385 70.8892 11.3932 71.0711 11.7812C71.2529 12.1692 71.5015 12.4723 71.8168 12.6906C72.1442 12.9088 72.5322 13.018 72.9808 13.018Z" fill="currentColor"/>
</svg>
